<svg width="14" height="14" viewBox="0 0 14 14" fill="none" xmlns="http://www.w3.org/2000/svg">
<path fill-rule="evenodd" clip-rule="evenodd" d="M12.2051 0.717949H1.79487C1.2001 0.717949 0.717949 1.2001 0.717949 1.79487V12.2051C0.717949 12.7999 1.2001 13.2821 1.79487 13.2821H12.2051C12.7999 13.2821 13.2821 12.7999 13.2821 12.2051V1.79487C13.2821 1.2001 12.7999 0.717949 12.2051 0.717949ZM1.79487 0C0.803592 0 0 0.803591 0 1.79487V12.2051C0 13.1964 0.803591 14 1.79487 14H12.2051C13.1964 14 14 13.1964 14 12.2051V1.79487C14 0.803592 13.1964 0 12.2051 0H1.79487Z" fill="#E3E3E3"/>
<path d="M2 11.1429V4.71429H4.57143V3H8V4.71429H10.5714V7.40357C10.4429 7.31071 10.3053 7.23029 10.1587 7.16229C10.0121 7.09429 9.864 7.03543 9.71429 6.98571V5.57143H2.85714V10.2857H5.88929C5.91071 10.4357 5.94286 10.5821 5.98571 10.725C6.02857 10.8679 6.08214 11.0071 6.14643 11.1429H2ZM5.42857 4.71429H7.14286V3.85714H5.42857V4.71429ZM8.85714 12C8.26429 12 7.75886 11.791 7.34086 11.373C6.92286 10.955 6.714 10.4497 6.71429 9.85714C6.71429 9.26429 6.92329 8.75886 7.34129 8.34086C7.75929 7.92286 8.26457 7.714 8.85714 7.71429C9.45 7.71429 9.95543 7.92329 10.3734 8.34129C10.7914 8.75929 11.0003 9.26457 11 9.85714C11 10.45 10.791 10.9554 10.373 11.3734C9.955 11.7914 9.44971 12.0003 8.85714 12ZM9.07143 9.77143V8.57143H8.64286V9.94286L9.56429 10.8643L9.86429 10.5643L9.07143 9.77143Z" fill="white"/>
</svg>
