<svg width="16" height="16" viewBox="0 0 16 16" fill="none" xmlns="http://www.w3.org/2000/svg">
<path d="M8 13C7.31667 13 6.67083 12.8687 6.0625 12.606C5.45417 12.3433 4.92283 11.985 4.4685 11.531C4.0145 11.077 3.65617 10.5458 3.3935 9.9375C3.13083 9.32917 2.99967 8.68333 3 8C3 7.30833 3.13133 6.66033 3.394 6.056C3.65667 5.45167 4.015 4.92267 4.469 4.469C4.923 4.01467 5.454 3.65633 6.062 3.394C6.67 3.13167 7.316 3.00033 8 3C8.69167 3 9.33967 3.13133 9.944 3.394C10.5483 3.65667 11.0773 4.015 11.531 4.469C11.9853 4.923 12.3437 5.45217 12.606 6.0565C12.8683 6.66083 12.9997 7.30867 13 8C13 8.68333 12.8687 9.32917 12.606 9.9375C12.3433 10.5458 11.985 11.0772 11.531 11.5315C11.077 11.9855 10.5478 12.3438 9.9435 12.6065C9.33917 12.8692 8.69133 13.0003 8 13ZM8 11.975C8.21667 11.675 8.40417 11.3625 8.5625 11.0375C8.72083 10.7125 8.85 10.3667 8.95 10H7.05C7.15 10.3667 7.27917 10.7125 7.4375 11.0375C7.59583 11.3625 7.78333 11.675 8 11.975ZM6.7 11.775C6.55 11.5 6.41867 11.2145 6.306 10.9185C6.19333 10.6225 6.09967 10.3163 6.025 10H4.55C4.79167 10.4167 5.09383 10.7792 5.4565 11.0875C5.81917 11.3958 6.23367 11.625 6.7 11.775ZM9.3 11.775C9.76667 11.625 10.1813 11.3958 10.544 11.0875C10.9067 10.7792 11.2087 10.4167 11.45 10H9.975C9.9 10.3167 9.80633 10.623 9.694 10.919C9.58167 11.215 9.45033 11.5003 9.3 11.775ZM4.125 9H5.825C5.8 8.83333 5.78117 8.66867 5.7685 8.506C5.75583 8.34333 5.74967 8.17467 5.75 8C5.75 7.825 5.75633 7.65633 5.769 7.494C5.78167 7.33167 5.80033 7.167 5.825 7H4.125C4.08333 7.16667 4.052 7.33133 4.031 7.494C4.01 7.65667 3.99967 7.82533 4 8C4 8.175 4.0105 8.34367 4.0315 8.506C4.0525 8.66833 4.08367 8.833 4.125 9ZM6.825 9H9.175C9.2 8.83333 9.21883 8.66867 9.2315 8.506C9.24417 8.34333 9.25033 8.17467 9.25 8C9.25 7.825 9.24367 7.65633 9.231 7.494C9.21833 7.33167 9.19967 7.167 9.175 7H6.825C6.8 7.16667 6.78117 7.33133 6.7685 7.494C6.75583 7.65667 6.74967 7.82533 6.75 8C6.75 8.175 6.75633 8.34367 6.769 8.506C6.78167 8.66833 6.80033 8.833 6.825 9ZM10.175 9H11.875C11.9167 8.83333 11.948 8.66867 11.969 8.506C11.99 8.34333 12.0003 8.17467 12 8C12 7.825 11.9895 7.65633 11.9685 7.494C11.9475 7.33167 11.9163 7.167 11.875 7H10.175C10.2 7.16667 10.2188 7.33133 10.2315 7.494C10.2442 7.65667 10.2503 7.82533 10.25 8C10.25 8.175 10.2437 8.34367 10.231 8.506C10.2183 8.66833 10.1997 8.833 10.175 9ZM9.975 6H11.45C11.2083 5.58333 10.9063 5.22083 10.544 4.9125C10.1817 4.60417 9.767 4.375 9.3 4.225C9.45 4.5 9.58133 4.7855 9.694 5.0815C9.80667 5.3775 9.90033 5.68367 9.975 6ZM7.05 6H8.95C8.85 5.63333 8.72083 5.2875 8.5625 4.9625C8.40417 4.6375 8.21667 4.325 8 4.025C7.78333 4.325 7.59583 4.6375 7.4375 4.9625C7.27917 5.2875 7.15 5.63333 7.05 6ZM4.55 6H6.025C6.1 5.68333 6.19383 5.377 6.3065 5.081C6.41917 4.785 6.55033 4.49967 6.7 4.225C6.23333 4.375 5.81867 4.60417 5.456 4.9125C5.09333 5.22083 4.79133 5.58333 4.55 6Z" fill="#EEBC76"/>
<path fill-rule="evenodd" clip-rule="evenodd" d="M13.9487 0.820513H2.05128C1.37155 0.820513 0.820513 1.37155 0.820513 2.05128V13.9487C0.820513 14.6285 1.37155 15.1795 2.05128 15.1795H13.9487C14.6285 15.1795 15.1795 14.6285 15.1795 13.9487V2.05128C15.1795 1.37155 14.6285 0.820513 13.9487 0.820513ZM2.05128 0C0.91839 0 0 0.91839 0 2.05128V13.9487C0 15.0816 0.91839 16 2.05128 16H13.9487C15.0816 16 16 15.0816 16 13.9487V2.05128C16 0.91839 15.0816 0 13.9487 0H2.05128Z" fill="#EEBC76"/>
</svg>
