<svg width="19" height="19" viewBox="0 0 19 19" fill="none" xmlns="http://www.w3.org/2000/svg">
<circle cx="9.5" cy="9.5" r="9.5" fill="#EDEDED"/>
<path d="M9.5 7.475C9.92624 7.475 10.335 7.61987 10.6364 7.87773C10.9378 8.13559 11.1071 8.48533 11.1071 8.85C11.1071 9.03057 11.0656 9.20937 10.9848 9.37619C10.904 9.54301 10.7857 9.69459 10.6364 9.82227C10.4872 9.94995 10.31 10.0512 10.115 10.1203C9.92004 10.1894 9.71105 10.225 9.5 10.225C9.07376 10.225 8.66498 10.0801 8.36358 9.82227C8.06218 9.56441 7.89286 9.21467 7.89286 8.85C7.89286 8.48533 8.06218 8.13559 8.36358 7.87773C8.66498 7.61987 9.07376 7.475 9.5 7.475ZM9.5 5C10.6935 5 11.8381 5.40562 12.682 6.12764C13.5259 6.84965 14 7.82892 14 8.85C14 11.7375 9.5 16 9.5 16C9.5 16 5 11.7375 5 8.85C5 7.82892 5.47411 6.84965 6.31802 6.12764C7.16193 5.40562 8.30653 5 9.5 5ZM9.5 6.1C8.64752 6.1 7.82995 6.38973 7.22716 6.90546C6.62436 7.42118 6.28571 8.12065 6.28571 8.85C6.28571 9.4 6.28571 10.5 9.5 14.1905C12.7143 10.5 12.7143 9.4 12.7143 8.85C12.7143 8.12065 12.3756 7.42118 11.7728 6.90546C11.17 6.38973 10.3525 6.1 9.5 6.1Z" fill="#23576D"/>
</svg>
