<svg width="19" height="19" viewBox="0 0 19 19" fill="none" xmlns="http://www.w3.org/2000/svg">
<circle cx="9.5" cy="9.5" r="9.5" fill="#EDEDED"/>
<path d="M13.35 5H5.65C5.21239 5 4.79271 5.17779 4.48327 5.49426C4.17384 5.81072 4 6.23995 4 6.6875V12.3125C4 12.7601 4.17384 13.1893 4.48327 13.5057C4.79271 13.8222 5.21239 14 5.65 14H13.35C13.7876 14 14.2073 13.8222 14.5167 13.5057C14.8262 13.1893 15 12.7601 15 12.3125V6.6875C15 6.23995 14.8262 5.81072 14.5167 5.49426C14.2073 5.17779 13.7876 5 13.35 5ZM12.9815 6.125L9.5 8.79688L6.0185 6.125H12.9815ZM13.35 12.875H5.65C5.50413 12.875 5.36424 12.8157 5.26109 12.7102C5.15795 12.6048 5.1 12.4617 5.1 12.3125V6.82812L9.17 9.95C9.2652 10.023 9.381 10.0625 9.5 10.0625C9.619 10.0625 9.7348 10.023 9.83 9.95L13.9 6.82812V12.3125C13.9 12.4617 13.8421 12.6048 13.7389 12.7102C13.6358 12.8157 13.4959 12.875 13.35 12.875Z" fill="#23576D"/>
</svg>
