<svg width="14" height="14" viewBox="0 0 14 14" fill="none" xmlns="http://www.w3.org/2000/svg">
<path fill-rule="evenodd" clip-rule="evenodd" d="M12.2051 0.717949H1.79487C1.2001 0.717949 0.717949 1.2001 0.717949 1.79487V12.2051C0.717949 12.7999 1.2001 13.2821 1.79487 13.2821H12.2051C12.7999 13.2821 13.2821 12.7999 13.2821 12.2051V1.79487C13.2821 1.2001 12.7999 0.717949 12.2051 0.717949ZM1.79487 0C0.803592 0 0 0.803591 0 1.79487V12.2051C0 13.1964 0.803591 14 1.79487 14H12.2051C13.1964 14 14 13.1964 14 12.2051V1.79487C14 0.803592 13.1964 0 12.2051 0H1.79487Z" fill="#E3E3E3"/>
<path d="M4.23729 7.7882L4.74407 7.79833L5.83843 6.69932L5.98022 6.55693L6.12194 6.69939L6.88221 7.46364C7.09943 7.21971 7.35259 7.01012 7.6332 6.84237L7.52505 6.38246C7.40517 6.40179 7.28383 6.41147 7.16219 6.41133M4.23729 7.7882L7.16241 6.21133M4.23729 7.7882C4.41771 6.9015 4.89237 6.19558 5.58222 5.76569M4.23729 7.7882L5.5649 5.56235L5.47111 5.65074L5.51813 5.70063L5.51856 5.70108C5.53943 5.72309 5.56066 5.74463 5.58222 5.76569M7.16219 6.41133L7.16241 6.21133M7.16219 6.41133C7.16226 6.41133 7.16234 6.41133 7.16241 6.41133V6.21133M7.16219 6.41133C6.56631 6.41127 6.0082 6.18175 5.58222 5.76569M7.16241 6.21133C6.5918 6.21133 6.05964 5.98099 5.66368 5.56346L5.61666 5.51357M5.58222 5.76569C5.60663 5.75048 5.63131 5.73561 5.65625 5.7211L5.71546 5.68746L5.65155 5.57497L5.65152 5.57492L5.61666 5.51357M5.61666 5.51357L5.56502 5.56223L4.03419 7.78414C4.22532 6.79916 4.76191 6.00977 5.55658 5.54771L5.61666 5.51357ZM7.67518 6.14718C7.64978 6.15366 7.62429 6.15966 7.5987 6.16517L7.72097 6.3419L7.67518 6.14718ZM7.16219 5.58517H7.16204C6.23569 5.58517 5.48004 4.82681 5.48004 3.89296C5.48004 2.95834 6.23609 2.2 7.16204 2.2C7.90562 2.2 8.53978 2.68861 8.76068 3.36482C8.0081 3.71483 7.41303 4.58578 7.34502 5.5752C7.28434 5.58188 7.22331 5.58522 7.16219 5.58517Z" stroke="white" stroke-width="0.4"/>
<path d="M7.22667 8.35042H8.25111H8.71901L8.39568 8.01222L7.73544 7.3216C7.85651 7.21485 7.99004 7.11422 8.13682 7.02043C8.57391 7.465 9.14849 7.71224 9.76396 7.71224C10.3794 7.71224 10.9543 7.46502 11.3914 7.02043C12.3942 7.6612 12.8065 8.63392 12.7999 9.8H8.27337L7.93918 9.55019L7.93905 9.5501C7.51807 9.23592 7.30813 8.8405 7.22667 8.35042ZM9.76396 6.85595C8.81405 6.85595 8.02549 6.04433 8.02549 5.02829C8.02549 4.01126 8.81379 3.2 9.76396 3.2C10.7142 3.2 11.5024 4.01132 11.5024 5.02734C11.5024 6.0435 10.7137 6.85595 9.76396 6.85595Z" stroke="white" stroke-width="0.4"/>
<path d="M4.49388 10.4309C4.10792 10.3541 3.72311 10.2086 3.35931 9.97256C2.75239 9.57876 2.18975 8.92357 1.77874 7.88093L1.71317 7.71457L1.54053 7.7612L0.943508 7.92244L1.82539 5.84966L3.62965 7.19698L3.00843 7.36476L2.81535 7.4169L2.86749 7.60999C3.21042 8.87974 3.72953 9.80566 4.49388 10.4309Z" stroke="white" stroke-width="0.4"/>
</svg>
