<svg width="14" height="14" viewBox="0 0 14 14" fill="none" xmlns="http://www.w3.org/2000/svg">
<path fill-rule="evenodd" clip-rule="evenodd" d="M12.2051 0.717949H1.79487C1.2001 0.717949 0.717949 1.2001 0.717949 1.79487V12.2051C0.717949 12.7999 1.2001 13.2821 1.79487 13.2821H12.2051C12.7999 13.2821 13.2821 12.7999 13.2821 12.2051V1.79487C13.2821 1.2001 12.7999 0.717949 12.2051 0.717949ZM1.79487 0C0.803592 0 0 0.803591 0 1.79487V12.2051C0 13.1964 0.803591 14 1.79487 14H12.2051C13.1964 14 14 13.1964 14 12.2051V1.79487C14 0.803592 13.1964 0 12.2051 0H1.79487Z" fill="#E3E3E3"/>
<path d="M11.9 12H9.07143V3H11.9V12ZM9.77857 11.3077H11.1929V3.69231H9.77857V11.3077ZM8.36429 12H5.53571V5.76923H8.36429V12ZM6.24286 11.3077H7.65714V6.46154H6.24286V11.3077ZM4.82857 12H2V7.84615H4.82857V12Z" fill="white"/>
</svg>
